<?xml version="1.0" encoding="UTF-8"?>
<svg id="_Слой_2" data-name="Слой 2" xmlns="http://www.w3.org/2000/svg" viewBox="0 0 146.63 184.72">
  <defs>
    <style>
      .cls-1 {
        fill: #262626;
      }

      .cls-2 {
        fill: #5c5c5c;
      }
    </style>
  </defs>
  <g id="Graphic_Elements" data-name="Graphic Elements">
    <g>
      <path class="cls-1" d="m146.6,72.72c-.19,11.09-2.92,21.57-7.63,30.89,0,.02-.01.05-.02.07v29.83c0,.09-.07.16-.16.16h-8.52c-2.21,0-4,1.79-4,4v34.53c0,.14-.17.22-.27.12l-34.75-31.16c-.05-.01-.09-.02-.14-.04-3.04.7-6.15,1.2-9.32,1.49-.14.01-.2.18-.09.28l38.09,34.16h-1.44c-58.89,0-106.82-47.87-106.9-106.74,0-.09-.07-.16-.16-.16H3.94c-.09,0-.17.07-.17.17.09,63.09,51.45,114.4,114.56,114.4h8.78s0,0,0,0h4.41c.13,0,.68-.32,1-.57.96-.77,1.42-2.01,1.42-3.24v-39.4c0-.09.07-.16.16-.16h8.52c2.21,0,4-1.79,4-4v-64.62h-.03Z"/>
      <path class="cls-1" d="m7.6,169.51c-1.95,0-3.72.76-5.07,1.98-1.55,1.39-2.54,3.39-2.54,5.63s.99,4.24,2.54,5.63c1.35,1.21,3.11,1.97,5.07,1.97s3.72-.76,5.07-1.97c1.55-1.39,2.54-3.39,2.54-5.63s-.99-4.24-2.54-5.63c-1.35-1.21-3.11-1.97-5.07-1.97Z"/>
      <g>
        <path class="cls-2" d="m142.8,71.48c0-37.36-30.29-67.65-67.65-67.65S7.5,34.12,7.5,71.48s30.29,67.65,67.65,67.65c.76,0,1.51-.03,2.26-.06l-4.26-3.82L11.97,80.39c-.41-2.91-.64-5.89-.64-8.91,0-.65.03-1.28.05-1.92l10.46,9.38h47.13c1.63-5.11,6.41-8.82,12.05-8.82,6.98,0,12.65,5.68,12.65,12.65s-5.67,12.65-12.65,12.65c-5.64,0-10.43-3.71-12.05-8.82H30.38l53.62,48.08,3.66,3.28c31.38-5.87,55.14-33.39,55.14-66.48Zm-29.41,5.44c-5.64,0-10.43-3.71-12.05-8.82H11.46c.14-2.59.42-5.15.85-7.66h36.35l13.61-21.72c.7-1.12,1.93-1.8,3.24-1.8h12.98c1.63-5.11,6.41-8.82,12.05-8.82,6.97,0,12.65,5.68,12.65,12.65s-5.67,12.65-12.65,12.65c-5.64,0-10.43-3.71-12.05-8.82h-10.86l-9.94,15.86h43.64c1.63-5.11,6.41-8.82,12.05-8.82,6.98,0,12.65,5.68,12.65,12.65s-5.67,12.65-12.65,12.65Z"/>
        <path class="cls-2" d="m81.02,87.76c2.75,0,4.99-2.24,4.99-4.99s-2.24-4.99-4.99-4.99-4.99,2.24-4.99,4.99,2.24,4.99,4.99,4.99Z"/>
        <path class="cls-2" d="m90.55,45.74c2.75,0,4.99-2.24,4.99-4.99s-2.24-4.99-4.99-4.99-4.99,2.24-4.99,4.99,2.24,4.99,4.99,4.99Z"/>
        <path class="cls-2" d="m113.39,59.27c-2.75,0-4.99,2.24-4.99,4.99s2.24,4.99,4.99,4.99,4.99-2.24,4.99-4.99-2.24-4.99-4.99-4.99Z"/>
      </g>
      <path class="cls-1" d="m75.15,0C35.74,0,3.67,32.06,3.67,71.48c0,1.27.04,2.52.1,3.77v85.85c1.21-.36,2.5-.56,3.83-.56s2.61.2,3.83.56v-57.3c11.82,23.21,35.94,39.16,63.72,39.16,2.11,0,4.2-.11,6.26-.29l-8.27-7.42c-31.26-.97-56.92-24.52-61.18-54.86-.41-2.91-.64-5.89-.64-8.91,0-.65.03-1.28.05-1.92.01-.49.05-.97.08-1.46.14-2.59.42-5.15.85-7.66C17.69,29.74,45.06,6.51,77.54,7.7c33.2,1.22,60.16,28.17,61.39,61.37,1.23,33.26-23.14,61.17-54.93,65.6l7.19,6.45c20.89-4.81,38.31-18.79,47.76-37.48,4.72-9.33,7.45-19.82,7.65-30.92,0-.42.03-.83.03-1.25C146.63,32.06,114.56,0,75.15,0Z"/>
    </g>
  </g>
</svg>