<svg width="65" height="82" viewBox="0 0 65 82" fill="none" xmlns="http://www.w3.org/2000/svg">
<g clip-path="url(#clip0_364_3972)">
<path d="M64.9866 32.2815C64.9024 37.2045 63.6922 41.8567 61.6043 45.994C61.6043 46.0029 61.5999 46.0162 61.5954 46.0251V59.2671C61.5954 59.307 61.5644 59.3381 61.5245 59.3381H57.7477C56.768 59.3381 55.9745 60.1327 55.9745 61.1138V76.4422C55.9745 76.5043 55.8991 76.5398 55.8548 76.4954L40.4504 62.663C40.4282 62.6586 40.4105 62.6542 40.3883 62.6453C39.0407 62.956 37.6621 63.178 36.2568 63.3067C36.1948 63.3112 36.1682 63.3866 36.2169 63.431L53.102 78.5951H52.4636C26.3581 78.5951 5.11109 57.3449 5.07563 31.2116C5.07563 31.1717 5.0446 31.1406 5.0047 31.1406H1.7465C1.70661 31.1406 1.67114 31.1717 1.67114 31.2161C1.71104 59.2227 24.4785 82 52.4547 82H56.3469H58.3018C58.3594 82 58.6032 81.8579 58.7451 81.7469C59.1706 81.4051 59.3745 80.8547 59.3745 80.3087V62.8184C59.3745 62.7785 59.4056 62.7474 59.4455 62.7474H63.2223C64.202 62.7474 64.9955 61.9528 64.9955 60.9717V32.2859H64.9822L64.9866 32.2815Z" fill="white"/>
<path d="M3.36882 75.248C2.5044 75.248 1.71977 75.5854 1.12132 76.127C0.434221 76.744 -0.00463867 77.6319 -0.00463867 78.6262C-0.00463867 79.6206 0.434221 80.5084 1.12132 81.1255C1.71977 81.6626 2.49996 82 3.36882 82C4.23767 82 5.01787 81.6626 5.61631 81.1255C6.30342 80.5084 6.74228 79.6206 6.74228 78.6262C6.74228 77.6319 6.30342 76.744 5.61631 76.127C5.01787 75.5899 4.23767 75.2525 3.36882 75.2525V75.248Z" fill="white"/>
<path d="M63.302 31.7311C63.302 15.1464 49.8746 1.7002 33.3132 1.7002C16.7518 1.7002 3.32446 15.1464 3.32446 31.7311C3.32446 48.3157 16.7518 61.7619 33.3132 61.7619C33.6501 61.7619 33.9826 61.7486 34.3151 61.7353L32.4266 60.0395L5.30598 35.6863C5.12423 34.3945 5.02227 33.0717 5.02227 31.7311C5.02227 31.4425 5.03557 31.1628 5.04444 30.8787L9.68128 35.0427H30.5737C31.2962 32.7743 33.4152 31.1273 35.9153 31.1273C39.0095 31.1273 41.523 33.6488 41.523 36.7429C41.523 39.8369 39.0095 42.3584 35.9153 42.3584C33.4152 42.3584 31.2918 40.7115 30.5737 38.443H13.467L37.2364 59.7865L38.8588 61.2425C52.7693 58.6367 63.302 46.4202 63.302 31.7311ZM50.2647 34.1459C47.7646 34.1459 45.6412 32.499 44.923 30.2306H5.0799C5.14196 29.0809 5.26608 27.9445 5.4567 26.8302H21.5704L27.6036 17.1884C27.9139 16.6912 28.4592 16.3893 29.0399 16.3893H34.7938C35.5164 14.1209 37.6353 12.474 40.1355 12.474C43.2252 12.474 45.7431 14.9955 45.7431 18.0895C45.7431 21.1836 43.2297 23.7051 40.1355 23.7051C37.6353 23.7051 35.5119 22.0581 34.7938 19.7897H29.9796L25.5733 26.8302H44.9186C45.6412 24.5618 47.7601 22.9149 50.2603 22.9149C53.3545 22.9149 55.8679 25.4363 55.8679 28.5304C55.8679 31.6245 53.3545 34.1459 50.2603 34.1459H50.2647Z" fill="white"/>
<path d="M35.9154 38.958C37.1345 38.958 38.1274 37.9636 38.1274 36.7428C38.1274 35.5221 37.1345 34.5277 35.9154 34.5277C34.6963 34.5277 33.7034 35.5221 33.7034 36.7428C33.7034 37.9636 34.6963 38.958 35.9154 38.958Z" fill="white"/>
<path d="M40.14 20.3047C41.3591 20.3047 42.352 19.3103 42.352 18.0895C42.352 16.8688 41.3591 15.8744 40.14 15.8744C38.921 15.8744 37.928 16.8688 37.928 18.0895C37.928 19.3103 38.921 20.3047 40.14 20.3047Z" fill="white"/>
<path d="M50.2648 26.3108C49.0457 26.3108 48.0527 27.3052 48.0527 28.5259C48.0527 29.7467 49.0457 30.7411 50.2648 30.7411C51.4838 30.7411 52.4768 29.7467 52.4768 28.5259C52.4768 27.3052 51.4838 26.3108 50.2648 26.3108Z" fill="white"/>
<path d="M33.3133 0C15.8431 0 1.62671 14.2319 1.62671 31.7311C1.62671 32.2948 1.64444 32.8497 1.67104 33.4046V71.5147C2.20742 71.3549 2.77927 71.2661 3.36885 71.2661C3.95843 71.2661 4.52584 71.3549 5.06666 71.5147V46.0784C10.3064 56.3817 20.9986 63.4621 33.3133 63.4621C34.2486 63.4621 35.1751 63.4133 36.0883 63.3334L32.4222 60.0395C18.5649 59.6089 7.19003 49.1547 5.3016 35.6863C5.11985 34.3945 5.0179 33.0717 5.0179 31.7311C5.0179 31.4425 5.0312 31.1628 5.04006 30.8787C5.04449 30.6612 5.06223 30.4481 5.07553 30.2306C5.13759 29.0809 5.26171 27.9445 5.45232 26.8302C7.84167 13.202 19.9746 2.88989 34.3727 3.41815C49.0901 3.95972 61.0412 15.9232 61.5865 30.6612C62.1317 45.4258 51.3287 57.8155 37.2364 59.782L40.4237 62.6453C49.6841 60.5101 57.4062 54.3041 61.5953 46.0074C63.6877 41.8656 64.8979 37.209 64.9865 32.2815C64.9865 32.0951 64.9998 31.9131 64.9998 31.7266C64.9998 14.2319 50.7834 0 33.3133 0Z" fill="white"/>
</g>
<defs>
<clipPath id="clip0_364_3972">
<rect width="65" height="82" fill="white"/>
</clipPath>
</defs>
</svg>
